<svg width="26" height="26" viewBox="0 0 26 26" fill="none" xmlns="http://www.w3.org/2000/svg">
<g clip-path="url(#clip0_31_368)">
<rect width="26" height="26" rx="13" fill="#B9B9B9"/>
<path d="M14.9361 3.80332L15.5372 9.98005C15.6024 10.6503 16.1062 11.1949 16.7694 11.3119L22.4734 12.3188C22.9522 12.4033 23.0409 13.0522 22.6024 13.2622L17.2738 15.8129C16.6973 16.0889 16.359 16.6998 16.4311 17.3349L16.9997 22.3481C17.0524 22.8127 16.4955 23.089 16.1575 22.766L12.5708 19.3391C12.1193 18.9078 11.4479 18.8012 10.885 19.0716L6.69948 21.0824C6.28309 21.2824 5.84136 20.8591 6.02346 20.4346L8.01557 15.7902C8.25516 15.2316 8.134 14.5837 7.70876 14.1494L3.54601 9.89838C3.20585 9.551 3.51138 8.97165 3.99016 9.05616L9.69419 10.063C10.3573 10.1801 11.0172 9.84089 11.3079 9.23351L13.9874 3.63587C14.206 3.17918 14.887 3.29939 14.9361 3.80332Z" fill="#FFE600" stroke="#515151"/>
</g>
<defs>
<clipPath id="clip0_31_368">
<rect width="26" height="26" rx="13" fill="white"/>
</clipPath>
</defs>
</svg>
